# Blender v2.82 (sub 7) OBJ File: ''
# www.blender.org
mtllib Cube_Cube003.mtl
o Cube_Cube.003
v -1.414444 -1.392906 -16.376980
v -1.414444 -1.511196 -14.811768
v -1.414444 -1.392908 -14.811768
v 4.832156 -1.392908 -14.811768
v 4.832156 -1.511194 -16.376980
v 4.832156 -1.392906 -16.376980
v 4.832156 -1.511196 -14.811768
v -1.487620 -1.365692 -14.781712
v 4.905564 -1.365692 -14.781712
v -1.449516 -1.310916 -14.799476
v 4.905564 -1.365690 -16.407032
v -1.487620 -1.365690 -16.407032
v 4.869728 -1.310914 -16.385408
v 4.869728 -1.310916 -14.799476
v -1.449516 -1.310914 -16.385408
v -1.414444 -1.511194 -16.376980
vt 0.969675 0.489650
vt 0.936934 0.244825
vt 0.969675 0.244825
vt 0.969675 0.244825
vt 0.936934 0.000000
vt 0.969675 0.000000
vt 0.888849 0.000000
vt 0.921189 0.977071
vt 0.888849 0.977071
vt 0.447292 0.925398
vt 0.438973 0.000000
vt 0.447292 0.009253
vt 0.936934 1.000000
vt 0.921189 0.005960
vt 0.936933 0.000000
vt 0.888849 0.937644
vt 0.438973 0.937644
vt 0.888849 0.000000
vt 0.880530 0.009253
vt 0.251642 0.007725
vt 0.004310 0.993241
vt 0.004309 0.007725
vt 0.984837 0.499052
vt 1.000000 0.248208
vt 1.000000 0.496274
vt 0.969675 0.244825
vt 0.984837 0.495669
vt 0.969675 0.499052
vt 0.936934 0.489650
vt 0.936934 0.244825
vt 0.921189 0.000000
vt 0.921189 0.994395
vt 0.880530 0.925398
vt 0.251643 0.993241
vt 0.984837 0.244825
vt 0.984837 0.247604
vn -1.0000 0.0000 0.0000
vn 1.0000 0.0000 0.0000
vn 0.0000 0.0000 1.0000
vn 0.0000 -0.7413 0.6712
vn 0.0000 0.3085 0.9512
vn 0.3476 -0.9376 -0.0000
vn -0.3486 -0.9373 -0.0000
vn 0.0000 1.0000 0.0000
vn 0.8368 0.5475 0.0000
vn -0.8209 0.5710 0.0000
vn -0.8209 0.5711 0.0000
usemtl Material.033
s off
f 1/1/1 2/2/1 3/3/1
f 4/4/2 5/5/2 6/6/2
f 3/7/3 7/8/3 4/9/3
f 4/10/4 8/11/4 3/12/4
f 9/13/5 10/14/5 8/15/5
f 4/10/6 11/16/6 9/17/6
f 3/12/7 12/18/7 1/19/7
f 13/20/8 10/21/8 14/22/8
f 9/23/9 13/24/9 14/25/9
f 8/26/10 15/27/10 12/28/10
f 1/1/1 16/29/1 2/2/1
f 4/4/2 7/30/2 5/5/2
f 3/7/3 2/31/3 7/8/3
f 4/10/4 9/17/4 8/11/4
f 9/13/5 14/32/5 10/14/5
f 4/10/6 6/33/6 11/16/6
f 3/12/7 8/11/7 12/18/7
f 13/20/8 15/34/8 10/21/8
f 9/23/9 11/35/9 13/24/9
f 8/26/11 10/36/11 15/27/11
