# Blender v2.82 (sub 7) OBJ File: ''
# www.blender.org
mtllib Plane016.mtl
o Plane.016
v -8.032300 -0.955300 -12.347596
v -8.611784 -1.520848 -12.347596
v -8.611784 -0.955300 -12.347596
v -8.032300 -0.955300 -11.498360
v -8.032300 -1.520856 -11.586648
v -8.032300 -0.955300 -11.586648
v -9.159236 7.739732 -11.540258
v -9.159236 -0.878528 -11.504860
v -9.159236 -0.886728 -11.540260
v -9.159236 -0.930100 -11.504860
v -9.159236 -0.938300 -11.540260
v -8.032300 -1.520848 -12.262780
v -8.032300 -0.955300 -12.262780
v -8.032300 -1.520848 -12.347596
v -8.047652 -0.886720 -12.329636
v -8.611784 -0.938296 -12.329636
v -8.611784 -0.886720 -12.329636
v -8.047652 -0.886728 -11.520648
v -8.047652 -0.938300 -11.586648
v -8.047652 -0.843432 -11.586648
v -8.047652 -0.938292 -12.262780
v -8.047652 -0.843424 -12.262780
v -8.047652 -0.938296 -12.329636
v -8.510196 -0.955300 -11.498360
v -8.510196 -1.512656 -11.482576
v -8.510196 -1.520856 -11.498360
v -8.517876 7.828140 -11.520646
v -8.517876 7.747928 -11.504858
v -8.517876 7.739732 -11.520646
v -8.517876 -0.930100 -11.504860
v -8.510196 -0.947100 -11.482576
v -8.047652 -0.938304 -11.520648
v -8.711708 -0.938300 -11.540260
v -8.711708 -0.886728 -11.540260
v -8.631448 7.828140 -11.520646
v -8.631448 7.828140 -11.540258
v -8.711708 7.739732 -11.540258
v -8.711708 -0.930100 -11.504860
v -8.711708 -0.878528 -11.504860
v -8.711708 7.747928 -11.504858
v -8.032300 -1.520856 -11.498360
v -8.517876 -0.938300 -11.520648
v -9.414344 -0.947100 -11.482576
v -9.159236 -1.512656 -11.482576
v -9.159236 -0.947100 -11.482576
v -8.711708 -1.512656 -11.482576
v -8.711708 -0.947100 -11.482576
v -9.414344 -0.878528 -11.504860
v -8.517876 -0.878528 -11.504860
v -9.414344 -0.930100 -11.504860
v -9.239492 7.828140 -11.520646
v -9.239492 7.836344 -11.504858
v -9.159236 7.747928 -11.504858
v -8.631448 7.836344 -11.504858
v -8.047652 7.828140 -12.329630
v -8.611784 7.739724 -12.329630
v -8.611784 7.828140 -12.329630
v -8.047652 7.828140 -11.520646
v -8.047652 7.739732 -11.586642
v -8.047652 7.828140 -11.586642
v -8.047652 7.739732 -12.262778
v -8.047652 7.828140 -12.262778
v -8.047652 7.739724 -12.329630
v -8.517876 -0.886728 -11.520648
v -9.239492 7.828140 -11.540258
v -8.047652 7.739732 -11.520646
v -8.517876 7.836344 -11.504858
v -8.099680 -0.843432 -11.586648
v -9.414344 7.747928 -11.504858
v -8.099680 -0.843424 -12.262780
v -8.099680 7.739732 -11.586642
v -8.099680 7.739732 -12.262778
v 6.330572 9.736578 -15.827152
v 6.134144 7.451608 -15.523330
v 6.330572 7.451608 -15.827158
v 6.330572 1.431830 -15.827160
v 6.134144 0.956837 -15.523332
v 6.330572 0.956838 -15.827160
v 6.330572 3.595446 -15.827158
v 6.134144 3.211206 -15.523330
v 6.330572 3.211206 -15.827158
v 6.330572 5.672232 -15.827158
v 6.134144 5.374825 -15.523330
v 6.330572 5.374825 -15.827158
v 6.134144 -0.299394 -15.523332
v 6.330572 -0.299394 -15.827160
v 6.134144 1.431828 -15.523332
v 6.134144 3.595446 -15.523330
v 6.134144 5.672232 -15.523330
v 6.134144 9.736578 -15.523320
v 5.564388 7.451608 -15.523330
v 5.564388 0.956837 -15.523332
v 5.564388 3.211206 -15.523330
v 5.564388 5.374825 -15.523330
v 5.564388 -0.299394 -15.523332
v 5.564388 1.431828 -15.523332
v 5.564388 3.595446 -15.523330
v 5.564388 5.672232 -15.523330
v 5.564388 9.736578 -15.523320
v 5.288996 7.451608 -15.827158
v 5.288996 0.956838 -15.827160
v 5.288996 3.211206 -15.827158
v 5.288996 5.374825 -15.827158
v 5.288996 -0.299394 -15.827160
v 5.288996 1.431830 -15.827160
v 5.288996 3.595446 -15.827158
v 5.288996 5.672232 -15.827158
v 5.288996 -0.299394 -16.331173
v 6.330572 5.672232 -16.044195
v 6.330572 3.211206 -16.044195
v 5.288996 3.595446 -16.331173
v 6.330572 7.451608 -16.044184
v 5.288996 9.736578 -15.827152
v 5.288996 7.451610 -16.331169
v 5.288996 0.956838 -16.331173
v 5.288996 5.374826 -16.331173
v 6.330572 3.595446 -16.044195
v 6.330572 0.956838 -16.044195
v 5.288996 1.431830 -16.331173
v 6.330572 5.374825 -16.044195
v 5.288996 5.672234 -16.331173
v 6.330572 9.736578 -16.044184
v 5.288996 3.211206 -16.331173
v 6.330572 1.431830 -16.044195
v -1.847376 9.736578 -15.827152
v -2.043800 7.451608 -15.523330
v -1.847376 7.451608 -15.827158
v -1.847376 1.431830 -15.827160
v -2.043800 0.956837 -15.523332
v -1.847376 0.956838 -15.827160
v -1.847376 3.595446 -15.827158
v -2.043800 3.211206 -15.523330
v -1.847376 3.211206 -15.827158
v -1.847376 5.672232 -15.827158
v -2.043800 5.374825 -15.523330
v -1.847376 5.374825 -15.827158
v -2.043800 -0.334302 -15.523332
v -1.847376 -0.334302 -15.827160
v -2.043800 1.431828 -15.523332
v -2.043800 3.595446 -15.523330
v -2.043800 5.672232 -15.523330
v -2.043800 9.736578 -15.523320
v -2.613556 7.451608 -15.523330
v -2.613556 0.956837 -15.523332
v -2.613556 3.211206 -15.523330
v -2.613556 5.374825 -15.523330
v -2.613556 -0.334302 -15.523332
v -2.613556 1.431828 -15.523332
v -2.613556 3.595446 -15.523330
v -2.613556 5.672232 -15.523330
v -2.613556 9.736578 -15.523320
v -2.888948 7.451608 -15.827158
v -2.888948 0.956838 -15.827160
v -2.888948 3.211206 -15.827158
v -2.888948 5.374825 -15.827158
v -2.888948 -0.334302 -15.827160
v -2.888948 1.431830 -15.827160
v -2.888948 3.595446 -15.827158
v -2.888948 5.672232 -15.827158
v -2.888948 -0.334302 -16.044195
v -1.847376 5.672234 -16.312540
v -1.847376 3.211206 -16.312540
v -2.888948 3.595446 -16.044195
v -1.847376 7.451610 -16.312536
v -2.888948 9.736578 -15.827152
v -2.888948 7.451608 -16.044184
v -2.888948 0.956838 -16.044195
v -2.888948 5.374825 -16.044195
v -1.847376 3.595446 -16.312540
v -1.847376 0.956838 -16.312540
v -2.888948 1.431830 -16.044195
v -1.847376 5.374826 -16.312540
v -2.888948 5.672232 -16.044195
v -1.847376 9.736578 -16.312536
v -2.888948 3.211206 -16.044195
v -1.847376 1.431830 -16.312540
v -8.047652 8.083276 -12.262778
v -8.047652 9.676308 -11.586640
v -8.047652 8.083276 -11.586642
v -8.047652 9.676308 -11.520644
v -8.047652 8.083276 -11.520646
v -8.517876 9.676308 -11.520644
v -8.517876 8.083276 -11.520646
v -8.047652 8.083276 -12.329630
v -8.047652 9.676308 -12.262776
v -8.611784 8.083276 -12.329630
v -8.047652 9.676308 -12.329624
v -7.999960 8.091076 -12.262778
v -7.999960 8.091076 -11.586642
v -7.999960 8.091076 -12.329630
v -7.999960 7.835932 -12.262778
v -7.999960 7.835932 -11.586642
v -7.999960 8.091076 -11.520646
v -7.999960 7.835932 -11.520646
v -7.999960 7.835932 -12.329630
v -9.420876 8.091475 -11.504858
v -9.414344 7.836344 -11.504858
v 5.288996 9.736578 -16.331169
v -2.888948 9.736578 -16.044184
v -9.414344 -1.512656 -11.482576
v 6.330572 -0.299394 -16.044195
v -1.847376 -0.334302 -16.312540
v -8.611784 9.676308 -12.329624
v -9.414344 9.684507 -11.504856
vt 0.690017 0.807212
vt 0.622539 0.846560
vt 0.622539 0.807212
vt 0.497166 0.056172
vt 0.509248 0.009949
vt 0.509243 0.056172
vt 0.539529 0.599635
vt 0.535530 0.077325
vt 0.539577 0.076828
vt 0.535531 0.074199
vt 0.539577 0.073702
vt 0.601739 0.009949
vt 0.601734 0.056172
vt 0.613342 0.009949
vt 0.613337 0.056172
vt 0.619866 0.013689
vt 0.697037 0.009949
vt 0.697037 0.013689
vt 0.500225 0.061155
vt 0.509254 0.057416
vt 0.509254 0.064295
vt 0.601745 0.057416
vt 0.601745 0.064295
vt 0.610891 0.061155
vt 0.610891 0.057416
vt 0.533675 0.606524
vt 0.535297 0.644663
vt 0.533489 0.645158
vt 0.533675 0.074197
vt 0.535456 0.079061
vt 0.533649 0.079555
vt 0.532934 0.604991
vt 0.535482 0.606029
vt 0.500225 0.057416
vt 0.670148 0.928460
vt 0.672328 0.963213
vt 0.670148 0.963116
vt 0.861730 0.641892
vt 0.800510 0.645632
vt 0.800510 0.641892
vt 0.626692 0.935844
vt 0.628976 0.935844
vt 0.628976 0.941302
vt 0.543625 0.597034
vt 0.539578 0.599662
vt 0.539578 0.596537
vt 0.626692 0.935984
vt 0.624818 0.941361
vt 0.622539 0.935844
vt 0.622539 0.885909
vt 0.678188 0.846560
vt 0.678188 0.885909
vt 0.490642 0.013689
vt 0.426317 0.009949
vt 0.490642 0.009949
vt 0.674829 0.928449
vt 0.672328 0.956972
vt 0.672328 0.927614
vt 0.622539 0.751403
vt 0.696770 0.767150
vt 0.622539 0.767150
vt 0.696770 0.794774
vt 0.622539 0.794774
vt 0.696770 0.807212
vt 0.622539 0.807212
vt 0.872707 0.013689
vt 0.907605 0.009949
vt 0.907605 0.013689
vt 0.907605 0.013689
vt 0.934121 0.009949
vt 0.934121 0.013689
vt 0.656408 0.941089
vt 0.658910 0.929073
vt 0.658910 0.941452
vt 0.656408 0.901689
vt 0.656408 0.929181
vt 0.656408 0.886017
vt 0.658910 0.901581
vt 0.537335 0.605043
vt 0.535531 0.605540
vt 0.535482 0.600132
vt 0.626692 0.941451
vt 0.427352 0.653357
vt 0.494810 0.647753
vt 0.494810 0.653357
vt 0.500160 0.693065
vt 0.509188 0.686654
vt 0.509188 0.693065
vt 0.601680 0.686654
vt 0.601680 0.693065
vt 0.610825 0.693065
vt 0.610825 0.686654
vt 0.532949 0.601865
vt 0.531142 0.602360
vt 0.872707 0.009949
vt 0.800508 0.016360
vt 0.789529 0.009949
vt 0.539578 0.605043
vt 0.547838 0.781801
vt 0.612163 0.775390
vt 0.612163 0.781801
vt 0.918585 0.645632
vt 0.934121 0.639221
vt 0.934121 0.645632
vt 0.543625 0.074199
vt 0.619866 0.639221
vt 0.697037 0.639221
vt 0.500160 0.686654
vt 0.670148 0.885909
vt 0.676178 0.927614
vt 0.670148 0.927600
vt 0.861728 0.016360
vt 0.426317 0.639221
vt 0.490642 0.639221
vt 0.872707 0.639221
vt 0.907605 0.639221
vt 0.907606 0.639221
vt 0.531127 0.605486
vt 0.519229 0.073702
vt 0.525178 0.593913
vt 0.519229 0.593913
vt 0.525178 0.073702
vt 0.531127 0.593913
vt 0.525178 0.593913
vt 0.676178 0.885909
vt 0.682191 0.927644
vt 0.676178 0.927644
vt 0.652247 0.929142
vt 0.233859 0.004303
vt 0.269310 0.229174
vt 0.233706 0.229153
vt 0.233630 0.821566
vt 0.269248 0.868289
vt 0.233651 0.868304
vt 0.233580 0.608655
vt 0.269187 0.646468
vt 0.233584 0.646472
vt 0.233615 0.404266
vt 0.269210 0.433549
vt 0.233604 0.433539
vt 0.269309 0.991880
vt 0.233714 0.991898
vt 0.269229 0.821553
vt 0.269185 0.608654
vt 0.269220 0.404280
vt 0.269458 0.004327
vt 0.325376 0.229206
vt 0.325304 0.868267
vt 0.325251 0.646462
vt 0.325278 0.433566
vt 0.325358 0.991853
vt 0.325288 0.821536
vt 0.325250 0.608655
vt 0.325288 0.404301
vt 0.325522 0.004364
vt 0.365728 0.229230
vt 0.365646 0.868253
vt 0.365598 0.646460
vt 0.365627 0.433578
vt 0.365697 0.991836
vt 0.365632 0.821524
vt 0.365597 0.608656
vt 0.365637 0.404316
vt 0.415278 0.991816
vt 0.212254 0.404257
vt 0.212225 0.646475
vt 0.415184 0.608659
vt 0.212348 0.229140
vt 0.365872 0.004390
vt 0.415321 0.229258
vt 0.415228 0.868236
vt 0.415215 0.433593
vt 0.212220 0.608655
vt 0.212296 0.868314
vt 0.415216 0.821512
vt 0.212242 0.433533
vt 0.415227 0.404337
vt 0.212503 0.004288
vt 0.415183 0.646456
vt 0.212274 0.821574
vt 0.052485 0.007556
vt 0.087708 0.230755
vt 0.052368 0.230740
vt 0.052369 0.818820
vt 0.087735 0.865207
vt 0.052391 0.865224
vt 0.052298 0.607447
vt 0.087650 0.644979
vt 0.052306 0.644986
vt 0.052305 0.404559
vt 0.087643 0.433620
vt 0.052300 0.433614
vt 0.087807 0.991335
vt 0.052462 0.991356
vt 0.087712 0.818805
vt 0.087643 0.607441
vt 0.087648 0.404566
vt 0.087821 0.007574
vt 0.143359 0.230779
vt 0.143392 0.865179
vt 0.143308 0.644965
vt 0.143297 0.433627
vt 0.143463 0.991303
vt 0.143370 0.818781
vt 0.143300 0.607433
vt 0.143302 0.404578
vt 0.143469 0.007602
vt 0.183412 0.230795
vt 0.183447 0.865159
vt 0.183362 0.644955
vt 0.183349 0.433631
vt 0.183519 0.991280
vt 0.183425 0.818764
vt 0.183353 0.607427
vt 0.183353 0.404586
vt 0.204719 0.991268
vt 0.004888 0.404546
vt 0.004885 0.644998
vt 0.204550 0.607424
vt 0.004955 0.230718
vt 0.183520 0.007621
vt 0.204609 0.230804
vt 0.204646 0.865148
vt 0.204545 0.433633
vt 0.004877 0.607452
vt 0.004972 0.865248
vt 0.204624 0.818755
vt 0.004880 0.433607
vt 0.204549 0.404591
vt 0.005079 0.007530
vt 0.204560 0.644949
vt 0.004948 0.818841
vt 0.630323 0.751403
vt 0.709056 0.653076
vt 0.709055 0.751401
vt 0.716740 0.653076
vt 0.716740 0.751401
vt 0.612163 0.800302
vt 0.547838 0.915818
vt 0.547838 0.800302
vt 0.622539 0.751403
vt 0.630323 0.653078
vt 0.494810 0.669529
vt 0.427352 0.770506
vt 0.427352 0.669529
vt 0.670148 0.931723
vt 0.664533 0.890040
vt 0.670148 0.890031
vt 0.670148 0.935792
vt 0.664533 0.931731
vt 0.664533 0.885917
vt 0.670148 0.885909
vt 0.622539 0.890035
vt 0.652247 0.931770
vt 0.622539 0.931769
vt 0.652247 0.935844
vt 0.622539 0.935843
vt 0.622539 0.885909
vt 0.652247 0.890036
vt 0.421649 0.653851
vt 0.618687 0.782366
vt 0.618687 0.800867
vt 0.658910 0.890036
vt 0.664533 0.931770
vt 0.658910 0.931770
vt 0.664533 0.935844
vt 0.658910 0.935844
vt 0.658910 0.885909
vt 0.664533 0.890035
vt 0.425201 0.800897
vt 0.425201 0.782396
vt 0.896626 0.645632
vt 0.758292 0.428200
vt 0.790123 0.347930
vt 0.790123 0.407621
vt 0.758292 0.319078
vt 0.735554 0.428200
vt 0.705489 0.319078
vt 0.749864 0.348128
vt 0.730807 0.396182
vt 0.730807 0.360448
vt 0.763475 0.413455
vt 0.749863 0.413455
vt 0.690017 0.846560
vt 0.497171 0.009949
vt 0.619866 0.009949
vt 0.535482 0.073702
vt 0.672328 0.927614
vt 0.861730 0.645632
vt 0.543625 0.600160
vt 0.622539 0.846561
vt 0.426317 0.013689
vt 0.674829 0.957336
vt 0.696770 0.751403
vt 0.872707 0.009949
vt 0.907605 0.009949
vt 0.658910 0.885909
vt 0.427352 0.647753
vt 0.547838 0.775390
vt 0.539578 0.073702
vt 0.676178 0.885923
vt 0.525178 0.073702
vt 0.531127 0.073702
vt 0.682191 0.885909
vt 0.652247 0.901649
vt 0.415465 0.004422
vt 0.212361 0.991909
vt 0.204718 0.007632
vt 0.005044 0.991383
vt 0.612163 0.915818
vt 0.622539 0.653078
vt 0.494810 0.770506
vt 0.664533 0.935801
vt 0.652247 0.885910
vt 0.421649 0.670023
vt 0.664533 0.885909
vt 0.425201 0.916412
vt 0.872707 0.645632
vt 0.780306 0.348128
vn 0.0000 0.0000 -1.0000
vn 1.0000 0.0000 0.0000
vn 0.9572 0.2568 -0.1337
vn 0.9572 0.2568 -0.1332
vn 0.9571 0.2572 -0.1336
vn 0.7421 0.6702 0.0000
vn 0.7423 0.6701 0.0000
vn 0.7422 0.6701 0.0000
vn 0.0000 0.7262 -0.6875
vn 0.0000 0.0000 1.0000
vn -0.7404 0.6722 0.0000
vn -1.0000 0.0000 0.0000
vn -0.7134 0.6827 -0.1581
vn 0.0000 0.7952 0.6064
vn 0.0000 0.7951 0.6065
vn -0.0002 0.7953 0.6062
vn 0.0000 0.7953 0.6062
vn 0.6990 0.6345 -0.3298
vn -0.6990 0.6345 -0.3298
vn 0.7404 0.6722 0.0000
vn 0.0000 1.0000 0.0000
vn 0.0000 -1.0000 0.0000
vn 0.0000 0.9742 -0.2257
vn 0.7134 0.6827 -0.1581
vn 0.8398 -0.0000 0.5429
vn -0.7409 -0.0000 0.6716
vn -0.1614 0.9869 0.0000
vn 0.1612 -0.9869 0.0000
vn 0.0175 -0.0000 0.9998
vn 0.0176 0.0000 0.9998
vn 0.9573 0.2565 -0.1336
vn 0.7421 0.6703 0.0000
vn 0.7422 0.6702 0.0000
vn -0.0005 0.7951 0.6065
vn 0.1613 -0.9869 0.0000
vn 0.0176 -0.0001 0.9998
vn 0.0175 0.0004 0.9998
usemtl Material.005
s off
f 1/1/1 2/2/1 3/3/1
f 4/4/2 5/5/2 6/6/2
f 7/7/2 8/8/2 9/9/2
f 9/9/2 10/10/2 11/11/2
f 6/6/2 12/12/2 13/13/2
f 13/13/2 14/14/2 1/15/2
f 15/16/1 16/17/1 17/18/1
f 18/19/2 19/20/2 20/21/2
f 20/21/2 21/22/2 22/23/2
f 15/24/2 21/22/2 23/25/2
f 24/26/2 25/27/2 26/28/2
f 27/29/2 28/30/2 29/31/2
f 24/26/3 30/32/4 31/33/5
f 32/34/6 6/6/6 19/20/6
f 19/20/7 13/13/7 21/22/7
f 23/25/8 13/13/8 1/15/8
f 23/35/9 3/36/9 16/37/9
f 9/38/10 33/39/10 34/40/10
f 35/41/11 36/42/11 37/43/11
f 34/44/12 38/45/12 39/46/12
f 40/47/13 35/48/13 37/49/13
f 24/50/10 41/51/10 4/52/10
f 18/53/10 42/54/10 32/55/10
f 32/56/14 24/57/14 4/58/14
f 43/59/10 44/60/10 45/61/10
f 45/61/10 46/62/10 47/63/10
f 47/63/10 25/64/10 31/65/10
f 48/66/10 10/67/10 8/68/10
f 39/69/10 30/70/10 49/71/10
f 30/72/15 47/73/15 31/74/15
f 10/75/15 47/73/15 38/76/15
f 50/77/16 45/78/17 10/75/17
f 51/79/18 52/80/18 53/81/18
f 54/82/19 35/48/19 40/47/19
f 55/83/1 56/84/1 57/85/1
f 58/86/2 59/87/2 60/88/2
f 60/88/2 61/89/2 62/90/2
f 55/91/2 61/89/2 63/92/2
f 29/31/2 49/93/2 64/94/2
f 65/95/10 37/96/10 36/97/10
f 65/98/20 51/79/20 7/7/20
f 27/99/10 66/100/10 58/101/10
f 54/102/10 28/103/10 67/104/10
f 39/46/12 37/105/12 34/44/12
f 63/106/1 17/18/1 56/107/1
f 66/108/2 20/21/2 59/87/2
f 22/109/21 68/110/21 20/111/21
f 63/92/2 22/23/2 15/24/2
f 7/112/10 34/40/10 37/96/10
f 29/113/10 18/53/10 66/114/10
f 69/115/10 8/68/10 53/116/10
f 40/117/10 49/71/10 28/103/10
f 64/94/2 30/32/2 42/118/2
f 61/119/10 70/120/10 22/121/10
f 20/122/1 71/123/1 59/124/1
f 59/125/22 72/126/22 61/127/22
f 33/128/23 10/75/23 38/76/23
f 7/7/24 51/79/24 53/81/24
f 73/129/25 74/130/25 75/131/25
f 76/132/25 77/133/25 78/134/25
f 79/135/25 80/136/25 81/137/25
f 82/138/25 83/139/25 84/140/25
f 78/134/25 85/141/25 86/142/25
f 81/137/25 87/143/25 76/132/25
f 84/140/25 88/144/25 79/135/25
f 75/131/25 89/145/25 82/138/25
f 90/146/10 91/147/10 74/130/10
f 87/143/10 92/148/10 77/133/10
f 88/144/10 93/149/10 80/136/10
f 89/145/10 94/150/10 83/139/10
f 77/133/10 95/151/10 85/141/10
f 80/136/10 96/152/10 87/143/10
f 83/139/10 97/153/10 88/144/10
f 74/130/10 98/154/10 89/145/10
f 99/155/26 100/156/26 91/147/26
f 96/152/26 101/157/26 92/148/26
f 97/153/26 102/158/26 93/149/26
f 98/154/26 103/159/26 94/150/26
f 92/148/26 104/160/26 95/151/26
f 93/149/26 105/161/26 96/152/26
f 94/150/26 106/162/26 97/153/26
f 91/147/26 107/163/26 98/154/26
f 101/157/12 108/164/12 104/160/12
f 84/140/2 109/165/2 82/138/2
f 76/132/2 110/166/2 81/137/2
f 103/159/12 111/167/12 106/162/12
f 82/138/2 112/168/2 75/131/2
f 113/169/12 114/170/12 100/156/12
f 105/161/12 115/171/12 101/157/12
f 107/163/12 116/172/12 103/159/12
f 81/137/2 117/173/2 79/135/2
f 86/142/2 118/174/2 78/134/2
f 102/158/12 119/175/12 105/161/12
f 79/135/2 120/176/2 84/140/2
f 100/156/12 121/177/12 107/163/12
f 75/131/2 122/178/2 73/129/2
f 106/162/12 123/179/12 102/158/12
f 78/134/2 124/180/2 76/132/2
f 125/181/25 126/182/25 127/183/25
f 128/184/25 129/185/25 130/186/25
f 131/187/25 132/188/25 133/189/25
f 134/190/25 135/191/25 136/192/25
f 130/186/25 137/193/25 138/194/25
f 133/189/25 139/195/25 128/184/25
f 136/192/25 140/196/25 131/187/25
f 127/183/25 141/197/25 134/190/25
f 142/198/10 143/199/10 126/182/10
f 139/195/10 144/200/10 129/185/10
f 140/196/10 145/201/10 132/188/10
f 141/197/10 146/202/10 135/191/10
f 129/185/10 147/203/10 137/193/10
f 132/188/10 148/204/10 139/195/10
f 135/191/10 149/205/10 140/196/10
f 126/182/10 150/206/10 141/197/10
f 151/207/26 152/208/26 143/199/26
f 148/204/26 153/209/26 144/200/26
f 149/205/26 154/210/26 145/201/26
f 150/206/26 155/211/26 146/202/26
f 144/200/26 156/212/26 147/203/26
f 145/201/26 157/213/26 148/204/26
f 146/202/26 158/214/26 149/205/26
f 143/199/26 159/215/26 150/206/26
f 153/209/12 160/216/12 156/212/12
f 136/192/2 161/217/2 134/190/2
f 128/184/2 162/218/2 133/189/2
f 155/211/12 163/219/12 158/214/12
f 134/190/2 164/220/2 127/183/2
f 165/221/12 166/222/12 152/208/12
f 157/213/12 167/223/12 153/209/12
f 159/215/12 168/224/12 155/211/12
f 133/189/2 169/225/2 131/187/2
f 138/194/2 170/226/2 130/186/2
f 154/210/12 171/227/12 157/213/12
f 131/187/2 172/228/2 136/192/2
f 152/208/12 173/229/12 159/215/12
f 127/183/2 174/230/2 125/181/2
f 158/214/12 175/231/12 154/210/12
f 130/186/2 176/232/2 128/184/2
f 177/233/2 178/234/2 179/235/2
f 179/235/2 180/236/2 181/237/2
f 181/238/10 182/239/10 183/240/10
f 184/241/2 185/242/2 177/233/2
f 186/243/1 187/244/1 184/245/1
f 179/246/27 188/247/27 177/248/27
f 181/249/27 189/250/27 179/246/27
f 58/101/10 183/240/10 27/99/10
f 177/248/27 190/251/27 184/252/27
f 57/85/1 184/245/1 55/83/1
f 191/253/2 189/254/2 192/255/2
f 192/255/2 193/256/2 194/257/2
f 195/258/2 188/259/2 191/253/2
f 184/245/1 195/260/1 55/83/1
f 181/238/10 194/261/10 193/262/10
f 62/263/28 192/264/28 60/265/28
f 60/265/28 194/266/28 58/267/28
f 55/268/28 191/269/28 62/263/28
f 182/239/29 196/270/29 183/240/29
f 183/240/30 197/271/30 27/99/30
f 52/272/10 69/115/10 53/116/10
f 73/273/21 99/274/21 90/275/21
f 113/276/21 122/277/21 198/278/21
f 125/279/21 151/280/21 142/281/21
f 125/279/21 199/282/21 165/283/21
f 1/1/1 14/284/1 2/2/1
f 4/4/2 41/285/2 5/5/2
f 7/7/2 53/81/2 8/8/2
f 9/9/2 8/8/2 10/10/2
f 6/6/2 5/5/2 12/12/2
f 13/13/2 12/12/2 14/14/2
f 15/16/1 23/286/1 16/17/1
f 18/19/2 32/34/2 19/20/2
f 20/21/2 19/20/2 21/22/2
f 15/24/2 22/23/2 21/22/2
f 24/26/2 31/33/2 25/27/2
f 27/29/2 67/287/2 28/30/2
f 24/26/5 42/118/31 30/32/5
f 32/34/32 4/4/32 6/6/32
f 19/20/33 6/6/33 13/13/33
f 23/25/7 21/22/7 13/13/7
f 23/35/9 1/288/9 3/36/9
f 9/38/10 11/289/10 33/39/10
f 34/44/12 33/290/12 38/45/12
f 24/50/10 26/291/10 41/51/10
f 18/53/10 64/292/10 42/54/10
f 32/56/15 42/293/15 24/57/15
f 43/59/10 200/294/10 44/60/10
f 45/61/10 44/60/10 46/62/10
f 47/63/10 46/62/10 25/64/10
f 48/66/10 50/295/10 10/67/10
f 39/69/10 38/296/10 30/70/10
f 30/72/15 38/76/15 47/73/15
f 10/75/15 45/78/15 47/73/15
f 50/77/15 43/297/15 45/78/34
f 55/83/1 63/298/1 56/84/1
f 58/86/2 66/108/2 59/87/2
f 60/88/2 59/87/2 61/89/2
f 55/91/2 62/90/2 61/89/2
f 29/31/2 28/30/2 49/93/2
f 65/95/10 7/112/10 37/96/10
f 27/99/10 29/299/10 66/100/10
f 54/102/10 40/117/10 28/103/10
f 39/46/12 40/300/12 37/105/12
f 63/106/1 15/16/1 17/18/1
f 66/108/2 18/19/2 20/21/2
f 22/109/21 70/301/21 68/110/21
f 63/92/2 61/89/2 22/23/2
f 7/112/10 9/38/10 34/40/10
f 29/113/10 64/292/10 18/53/10
f 69/115/10 48/66/10 8/68/10
f 40/117/10 39/69/10 49/71/10
f 64/94/2 49/93/2 30/32/2
f 61/119/10 72/302/10 70/120/10
f 20/122/1 68/303/1 71/123/1
f 59/125/22 71/304/22 72/126/22
f 33/128/23 11/305/23 10/75/23
f 73/129/25 90/146/25 74/130/25
f 76/132/25 87/143/25 77/133/25
f 79/135/25 88/144/25 80/136/25
f 82/138/25 89/145/25 83/139/25
f 78/134/25 77/133/25 85/141/25
f 81/137/25 80/136/25 87/143/25
f 84/140/25 83/139/25 88/144/25
f 75/131/25 74/130/25 89/145/25
f 90/146/10 99/155/10 91/147/10
f 87/143/10 96/152/10 92/148/10
f 88/144/10 97/153/10 93/149/10
f 89/145/10 98/154/10 94/150/10
f 77/133/10 92/148/10 95/151/10
f 80/136/10 93/149/10 96/152/10
f 83/139/10 94/150/10 97/153/10
f 74/130/10 91/147/10 98/154/10
f 99/155/26 113/169/26 100/156/26
f 96/152/26 105/161/26 101/157/26
f 97/153/26 106/162/26 102/158/26
f 98/154/26 107/163/26 103/159/26
f 92/148/26 101/157/26 104/160/26
f 93/149/26 102/158/26 105/161/26
f 94/150/26 103/159/26 106/162/26
f 91/147/26 100/156/26 107/163/26
f 101/157/12 115/171/12 108/164/12
f 84/140/2 120/176/2 109/165/2
f 76/132/2 124/180/2 110/166/2
f 103/159/12 116/172/12 111/167/12
f 82/138/2 109/165/2 112/168/2
f 113/169/12 198/306/12 114/170/12
f 105/161/12 119/175/12 115/171/12
f 107/163/12 121/177/12 116/172/12
f 81/137/2 110/166/2 117/173/2
f 86/142/2 201/307/2 118/174/2
f 102/158/12 123/179/12 119/175/12
f 79/135/2 117/173/2 120/176/2
f 100/156/12 114/170/12 121/177/12
f 75/131/2 112/168/2 122/178/2
f 106/162/12 111/167/12 123/179/12
f 78/134/2 118/174/2 124/180/2
f 125/181/25 142/198/25 126/182/25
f 128/184/25 139/195/25 129/185/25
f 131/187/25 140/196/25 132/188/25
f 134/190/25 141/197/25 135/191/25
f 130/186/25 129/185/25 137/193/25
f 133/189/25 132/188/25 139/195/25
f 136/192/25 135/191/25 140/196/25
f 127/183/25 126/182/25 141/197/25
f 142/198/10 151/207/10 143/199/10
f 139/195/10 148/204/10 144/200/10
f 140/196/10 149/205/10 145/201/10
f 141/197/10 150/206/10 146/202/10
f 129/185/10 144/200/10 147/203/10
f 132/188/10 145/201/10 148/204/10
f 135/191/10 146/202/10 149/205/10
f 126/182/10 143/199/10 150/206/10
f 151/207/26 165/221/26 152/208/26
f 148/204/26 157/213/26 153/209/26
f 149/205/26 158/214/26 154/210/26
f 150/206/26 159/215/26 155/211/26
f 144/200/26 153/209/26 156/212/26
f 145/201/26 154/210/26 157/213/26
f 146/202/26 155/211/26 158/214/26
f 143/199/26 152/208/26 159/215/26
f 153/209/12 167/223/12 160/216/12
f 136/192/2 172/228/2 161/217/2
f 128/184/2 176/232/2 162/218/2
f 155/211/12 168/224/12 163/219/12
f 134/190/2 161/217/2 164/220/2
f 165/221/12 199/308/12 166/222/12
f 157/213/12 171/227/12 167/223/12
f 159/215/12 173/229/12 168/224/12
f 133/189/2 162/218/2 169/225/2
f 138/194/2 202/309/2 170/226/2
f 154/210/12 175/231/12 171/227/12
f 131/187/2 169/225/2 172/228/2
f 152/208/12 166/222/12 173/229/12
f 127/183/2 164/220/2 174/230/2
f 158/214/12 163/219/12 175/231/12
f 130/186/2 170/226/2 176/232/2
f 177/233/2 185/242/2 178/234/2
f 179/235/2 178/234/2 180/236/2
f 181/238/10 180/310/10 182/239/10
f 184/241/2 187/311/2 185/242/2
f 186/243/1 203/312/1 187/244/1
f 179/246/27 189/250/27 188/247/27
f 181/249/27 193/313/27 189/250/27
f 58/101/10 181/238/10 183/240/10
f 177/248/27 188/247/27 190/251/27
f 57/85/1 186/243/1 184/245/1
f 191/253/2 188/259/2 189/254/2
f 192/255/2 189/254/2 193/256/2
f 195/258/2 190/314/2 188/259/2
f 184/245/1 190/315/1 195/260/1
f 181/238/10 58/101/10 194/261/10
f 62/263/28 191/269/28 192/264/28
f 60/265/35 192/264/35 194/266/35
f 55/268/28 195/316/28 191/269/28
f 182/239/36 204/317/36 196/270/36
f 183/240/37 196/270/37 197/271/37
f 52/272/10 197/318/10 69/115/10
f 73/273/21 113/276/21 99/274/21
f 113/276/21 73/273/21 122/277/21
f 125/279/21 165/283/21 151/280/21
f 125/279/21 174/319/21 199/282/21
