# Blender v2.82 (sub 7) OBJ File: ''
# www.blender.org
mtllib Plane015_Plane018.mtl
o Plane.015_Plane.018
v -8.596428 -0.886732 -2.185412
v -8.032300 -0.938308 -2.185412
v -8.032300 -0.886732 -2.185412
v -8.596428 7.828136 -2.185414
v -8.032300 7.739726 -2.185414
v -8.032300 7.828136 -2.185414
v -8.596428 7.739726 -2.185414
v -8.032300 8.083272 -2.185414
v -8.596428 9.676304 -2.185412
v -8.596428 8.083272 -2.185414
v -8.302764 7.731522 -2.963330
v -8.302764 -0.886732 -2.998728
v -8.302764 -0.894931 -2.963332
v -8.302764 -0.938304 -2.998728
v -8.302764 -0.946504 -2.963332
v -8.951800 -0.963504 -3.005228
v -8.951800 -1.520859 -3.021012
v -8.951800 -1.529060 -3.005228
v -8.944124 7.819936 -2.982938
v -8.944124 7.739726 -2.998726
v -8.944124 7.731522 -2.982938
v -8.944124 -0.938304 -2.998728
v -8.951800 -0.955304 -3.021012
v -8.750288 -0.946504 -2.963332
v -8.750288 -0.894931 -2.963332
v -8.830548 7.819936 -2.982938
v -8.830548 7.819936 -2.963330
v -8.750288 7.731522 -2.963330
v -8.750288 -0.938304 -2.998728
v -8.750288 -0.886732 -2.998728
v -8.750288 7.739726 -2.998726
v -9.429696 -1.529060 -3.005228
v -9.429696 -0.963504 -3.005228
v -9.414344 -0.894931 -2.982940
v -8.944124 -0.946504 -2.982940
v -9.414344 -0.946508 -2.982940
v -8.047652 -0.955304 -3.021012
v -8.302764 -1.520859 -3.021012
v -8.302764 -0.955304 -3.021012
v -8.750288 -1.520859 -3.021012
v -8.750288 -0.955304 -3.021012
v -8.944124 -0.886732 -2.998728
v -8.047652 -0.938304 -2.998728
v -8.222504 7.819936 -2.982942
v -8.222504 7.828136 -2.998726
v -8.302764 7.739726 -2.998726
v -8.830548 7.828136 -2.998726
v -8.944124 -0.894931 -2.982944
v -8.222504 7.819936 -2.963330
v -9.414344 7.731522 -2.982938
v -9.414344 7.819936 -2.982938
v -8.944124 7.828136 -2.998726
v -9.414344 8.075074 -2.982938
v -8.944124 9.668106 -2.982936
v -8.944124 8.075074 -2.982938
v -8.041120 8.083274 -2.998726
v -8.047652 7.828136 -2.998726
v -8.047652 7.739726 -2.998726
v -8.032300 -0.955304 -2.167452
v -8.032300 -1.520860 -2.255740
v -8.032300 -0.955304 -2.255740
v -8.032300 -1.520859 -2.931872
v -8.032300 -0.955304 -2.931872
v -8.032300 -1.520859 -3.016688
v -8.032300 -0.955304 -3.016688
v -8.047652 -0.886732 -2.189740
v -8.047652 -0.938304 -2.255740
v -8.047652 -0.843436 -2.255740
v -8.047652 -0.938304 -2.931872
v -8.047652 -0.843436 -2.931872
v -8.047652 -0.938308 -2.189740
v -8.047652 7.828136 -2.189738
v -8.047652 7.739726 -2.255734
v -8.047652 7.828136 -2.255734
v -8.047652 7.739726 -2.931870
v -8.047652 7.828136 -2.931870
v -8.047652 7.739726 -2.189738
v -8.099680 -0.843436 -2.255740
v -8.099680 -0.843436 -2.931872
v -8.099680 7.739726 -2.255734
v -8.099680 7.739726 -2.931870
v -8.047652 8.083274 -2.931869
v -8.047652 9.676304 -2.255732
v -8.047652 8.083272 -2.255733
v -8.047652 9.676304 -2.189736
v -8.047652 8.083272 -2.189738
v -7.999960 8.091066 -2.931869
v -7.999960 8.091064 -2.255733
v -7.999960 8.091066 -2.998722
v -8.047652 8.083274 -2.998722
v -7.999960 7.835928 -2.931870
v -7.999960 7.835928 -2.255734
v -7.999960 8.091064 -2.189738
v -7.999960 7.835928 -2.189738
v -7.999960 7.835928 -2.998722
v -8.611784 -0.955304 -2.167452
v -8.032300 -1.520860 -2.167452
v -8.596428 -0.938308 -2.185412
v -8.047652 -0.886732 -2.998728
v -8.047652 9.676306 -2.931868
v -8.047652 -1.520859 -3.021012
v -8.032300 9.676304 -2.185412
v -9.414344 9.668106 -2.982936
v -8.047652 9.676306 -2.998724
v -8.611784 -1.520860 -2.167452
vt 0.619866 0.013689
vt 0.697037 0.009949
vt 0.697037 0.013689
vt 0.427352 0.653357
vt 0.494810 0.647753
vt 0.494810 0.653357
vt 0.619866 0.639221
vt 0.697037 0.639221
vt 0.494810 0.669529
vt 0.427352 0.770506
vt 0.427352 0.669529
vt 0.539529 0.599635
vt 0.535530 0.077325
vt 0.539577 0.076828
vt 0.535531 0.074199
vt 0.539577 0.073702
vt 0.533675 0.606524
vt 0.535297 0.644663
vt 0.533489 0.645158
vt 0.533675 0.074197
vt 0.535456 0.079061
vt 0.533649 0.079555
vt 0.532934 0.604991
vt 0.535482 0.606029
vt 0.861730 0.641892
vt 0.800510 0.645632
vt 0.800510 0.641892
vt 0.626692 0.935844
vt 0.628976 0.935844
vt 0.628976 0.941302
vt 0.543625 0.597034
vt 0.539578 0.599662
vt 0.539578 0.596537
vt 0.626692 0.935984
vt 0.624818 0.941361
vt 0.622539 0.935844
vt 0.622539 0.885909
vt 0.678188 0.846560
vt 0.678188 0.885909
vt 0.490642 0.013689
vt 0.426317 0.009949
vt 0.490642 0.009949
vt 0.674829 0.928449
vt 0.672328 0.956972
vt 0.672328 0.927614
vt 0.622539 0.751403
vt 0.696770 0.767150
vt 0.622539 0.767150
vt 0.696770 0.794774
vt 0.622539 0.794774
vt 0.696770 0.807212
vt 0.622539 0.807212
vt 0.907605 0.013689
vt 0.934121 0.009949
vt 0.934121 0.013689
vt 0.656408 0.941089
vt 0.658910 0.929073
vt 0.658910 0.941452
vt 0.656408 0.901689
vt 0.656408 0.929181
vt 0.656408 0.886017
vt 0.658910 0.901581
vt 0.537335 0.605043
vt 0.535531 0.605540
vt 0.535482 0.600132
vt 0.626692 0.941451
vt 0.532949 0.601865
vt 0.531142 0.602360
vt 0.872707 0.009949
vt 0.800508 0.016360
vt 0.789529 0.009949
vt 0.539578 0.605043
vt 0.547838 0.781801
vt 0.612163 0.775390
vt 0.612163 0.781801
vt 0.918585 0.645632
vt 0.934121 0.639221
vt 0.934121 0.645632
vt 0.543625 0.074199
vt 0.861728 0.016360
vt 0.426317 0.639221
vt 0.490642 0.639221
vt 0.907606 0.639221
vt 0.531127 0.605486
vt 0.652247 0.929142
vt 0.612163 0.800302
vt 0.547838 0.915818
vt 0.547838 0.800302
vt 0.425201 0.800897
vt 0.425201 0.782396
vt 0.896626 0.645632
vt 0.872707 0.639221
vt 0.907605 0.639221
vt 0.497166 0.056172
vt 0.509248 0.009949
vt 0.509243 0.056172
vt 0.601739 0.009949
vt 0.601734 0.056172
vt 0.613342 0.009949
vt 0.613337 0.056172
vt 0.500225 0.061155
vt 0.509254 0.057416
vt 0.509254 0.064295
vt 0.601745 0.057416
vt 0.601745 0.064295
vt 0.500225 0.057416
vt 0.500160 0.693065
vt 0.509188 0.686654
vt 0.509188 0.693065
vt 0.601680 0.686654
vt 0.601680 0.693065
vt 0.500160 0.686654
vt 0.670148 0.885909
vt 0.676178 0.927614
vt 0.670148 0.927600
vt 0.519229 0.073702
vt 0.525178 0.593913
vt 0.519229 0.593913
vt 0.525178 0.073702
vt 0.531127 0.593913
vt 0.525178 0.593913
vt 0.676178 0.885909
vt 0.682191 0.927644
vt 0.676178 0.927644
vt 0.630323 0.751403
vt 0.709056 0.653076
vt 0.709055 0.751401
vt 0.716740 0.653076
vt 0.716740 0.751401
vt 0.670148 0.931723
vt 0.664533 0.890040
vt 0.670148 0.890031
vt 0.670148 0.935792
vt 0.664533 0.931731
vt 0.664533 0.885917
vt 0.670148 0.885909
vt 0.622539 0.890035
vt 0.652247 0.931770
vt 0.622539 0.931769
vt 0.652247 0.935844
vt 0.622539 0.935843
vt 0.622539 0.885909
vt 0.652247 0.890036
vt 0.612163 0.800302
vt 0.618687 0.782366
vt 0.618687 0.800867
vt 0.658910 0.890036
vt 0.664533 0.931770
vt 0.658910 0.931770
vt 0.664533 0.935844
vt 0.658910 0.935844
vt 0.690017 0.807212
vt 0.622539 0.846560
vt 0.622539 0.807212
vt 0.670148 0.928460
vt 0.672328 0.963213
vt 0.670148 0.963116
vt 0.872707 0.013689
vt 0.907605 0.009949
vt 0.907605 0.013689
vt 0.610891 0.061155
vt 0.610891 0.057416
vt 0.610825 0.686654
vt 0.610825 0.693065
vt 0.622539 0.751403
vt 0.630323 0.653078
vt 0.427352 0.669529
vt 0.421649 0.653851
vt 0.427352 0.653357
vt 0.664533 0.885909
vt 0.664533 0.890035
vt 0.485102 0.084579
vt 0.485806 0.081392
vt 0.486959 0.084579
vt 0.486958 0.150407
vt 0.485102 0.150407
vt 0.619866 0.009949
vt 0.427352 0.647753
vt 0.494810 0.770506
vt 0.535482 0.073702
vt 0.861730 0.645632
vt 0.543625 0.600160
vt 0.622539 0.846561
vt 0.426317 0.013689
vt 0.674829 0.957336
vt 0.696770 0.751403
vt 0.907605 0.009949
vt 0.658910 0.885909
vt 0.547838 0.775390
vt 0.539578 0.073702
vt 0.652247 0.901649
vt 0.612163 0.915818
vt 0.425201 0.916412
vt 0.872707 0.645632
vt 0.497171 0.009949
vt 0.676178 0.885923
vt 0.525178 0.073702
vt 0.531127 0.073702
vt 0.682191 0.885909
vt 0.664533 0.935801
vt 0.652247 0.885910
vt 0.612163 0.781801
vt 0.690017 0.846560
vt 0.672328 0.927614
vt 0.872707 0.009949
vt 0.622539 0.653078
vt 0.421649 0.670023
vt 0.658910 0.885909
vn 0.0000 0.0000 1.0000
vn -1.0000 0.0000 0.0000
vn -0.9571 0.2572 0.1336
vn 0.0000 0.0000 -1.0000
vn 0.7404 0.6721 0.0000
vn 1.0000 0.0000 0.0000
vn 0.7134 0.6827 0.1582
vn 0.0000 0.7952 -0.6064
vn 0.0000 0.7951 -0.6065
vn -0.6990 0.6346 0.3296
vn 0.6990 0.6346 0.3296
vn -0.7404 0.6721 0.0000
vn 0.0000 0.9742 0.2257
vn -0.7134 0.6827 0.1582
vn -0.0175 0.0000 -0.9998
vn -0.0176 0.0000 -0.9998
vn 0.7421 0.6702 0.0000
vn 0.0000 1.0000 0.0000
vn 0.0000 -1.0000 0.0000
vn -0.1612 0.9869 0.0000
vn -0.1613 0.9869 0.0000
vn 0.1612 -0.9869 0.0000
vn 0.0000 0.7263 0.6873
vn 0.7421 0.6703 0.0000
vn 0.0001 0.0000 -1.0000
vn 0.1684 0.7837 -0.5978
vn 0.2711 0.0000 -0.9625
vn -0.9571 0.2571 0.1335
vn -0.0000 -0.0001 -1.0000
vn -0.0176 -0.0001 -0.9998
vn -0.0175 0.0004 -0.9998
vn 0.7422 0.6702 0.0000
vn 0.0000 0.7263 0.6874
usemtl Material.005
s off
f 1/1/1 2/2/1 3/3/1
f 4/4/1 5/5/1 6/6/1
f 7/7/1 3/3/1 5/8/1
f 8/9/1 9/10/1 10/11/1
f 6/6/1 10/11/1 4/4/1
f 11/12/2 12/13/2 13/14/2
f 13/14/2 14/15/2 15/16/2
f 16/17/2 17/18/2 18/19/2
f 19/20/2 20/21/2 21/22/2
f 16/17/3 22/23/3 23/24/3
f 13/25/4 24/26/4 25/27/4
f 26/28/5 27/29/5 28/30/5
f 25/31/6 29/32/6 30/33/6
f 31/34/7 26/35/7 28/36/7
f 16/37/4 32/38/4 33/39/4
f 34/40/4 35/41/4 36/42/4
f 36/43/8 16/44/8 33/45/8
f 37/46/4 38/47/4 39/48/4
f 39/48/4 40/49/4 41/50/4
f 41/50/4 17/51/4 23/52/4
f 30/53/4 22/54/4 42/55/4
f 22/56/9 41/57/9 23/58/9
f 14/59/9 41/57/9 29/60/9
f 43/61/9 39/62/9 14/59/9
f 44/63/10 45/64/10 46/65/10
f 47/66/11 26/35/11 31/34/11
f 21/22/2 42/67/2 48/68/2
f 49/69/4 28/70/4 27/71/4
f 49/72/12 44/63/12 11/12/12
f 19/73/4 50/74/4 51/75/4
f 47/76/4 20/77/4 52/78/4
f 30/33/6 28/79/6 25/31/6
f 11/80/4 25/27/4 28/70/4
f 21/81/4 34/40/4 50/82/4
f 31/83/4 42/55/4 20/77/4
f 48/68/2 22/23/2 35/84/2
f 24/85/13 14/59/13 29/60/13
f 11/12/14 44/63/14 46/65/14
f 53/86/4 54/87/4 55/88/4
f 51/75/4 55/88/4 19/73/4
f 54/87/15 56/89/15 55/88/15
f 55/88/16 57/90/16 19/73/16
f 45/91/4 58/92/4 46/93/4
f 59/94/6 60/95/6 61/96/6
f 61/96/6 62/97/6 63/98/6
f 63/98/6 64/99/6 65/100/6
f 66/101/6 67/102/6 68/103/6
f 68/103/6 69/104/6 70/105/6
f 71/106/17 61/96/17 67/102/17
f 67/102/17 63/98/17 69/104/17
f 72/107/6 73/108/6 74/109/6
f 74/109/6 75/110/6 76/111/6
f 77/112/6 68/103/6 73/108/6
f 70/113/18 78/114/18 68/115/18
f 75/116/1 79/117/1 70/118/1
f 68/119/4 80/120/4 73/121/4
f 73/122/19 81/123/19 75/124/19
f 82/125/6 83/126/6 84/127/6
f 84/127/6 85/128/6 86/129/6
f 84/130/20 87/131/20 82/132/20
f 86/133/20 88/134/20 84/130/20
f 82/132/21 89/135/21 90/136/21
f 91/137/6 88/138/6 92/139/6
f 92/139/6 93/140/6 94/141/6
f 95/142/6 87/143/6 91/137/6
f 86/144/1 94/145/1 93/146/1
f 76/147/22 92/148/22 74/149/22
f 74/149/22 94/150/22 72/151/22
f 96/152/1 97/153/1 59/154/1
f 98/155/23 59/156/23 2/157/23
f 99/158/4 14/159/4 12/160/4
f 58/92/4 12/160/4 46/93/4
f 99/161/6 69/104/6 43/162/6
f 43/162/24 63/98/24 65/100/24
f 76/111/6 58/163/6 57/164/6
f 58/163/6 70/105/6 99/161/6
f 90/165/6 100/166/6 82/125/6
f 90/167/25 95/168/25 57/169/25
f 76/147/22 95/170/22 91/171/22
f 37/172/26 43/173/26 65/174/26
f 37/172/27 64/175/27 101/176/27
f 1/1/1 98/177/1 2/2/1
f 4/4/1 7/178/1 5/5/1
f 7/7/1 1/1/1 3/3/1
f 8/9/1 102/179/1 9/10/1
f 6/6/1 8/9/1 10/11/1
f 11/12/2 46/65/2 12/13/2
f 13/14/2 12/13/2 14/15/2
f 16/17/2 23/24/2 17/18/2
f 19/20/2 52/180/2 20/21/2
f 16/17/28 35/84/28 22/23/28
f 13/25/4 15/181/4 24/26/4
f 25/31/6 24/182/6 29/32/6
f 16/37/4 18/183/4 32/38/4
f 34/40/29 48/184/29 35/41/29
f 36/43/9 35/185/9 16/44/9
f 37/46/4 101/186/4 38/47/4
f 39/48/4 38/47/4 40/49/4
f 41/50/4 40/49/4 17/51/4
f 30/53/4 29/187/4 22/54/4
f 22/56/9 29/60/9 41/57/9
f 14/59/9 39/62/9 41/57/9
f 43/61/9 37/188/9 39/62/9
f 21/22/2 20/21/2 42/67/2
f 49/69/4 11/80/4 28/70/4
f 19/73/4 21/189/4 50/74/4
f 47/76/4 31/83/4 20/77/4
f 30/33/6 31/190/6 28/79/6
f 11/80/4 13/25/4 25/27/4
f 21/81/4 48/184/4 34/40/4
f 31/83/4 30/53/4 42/55/4
f 48/68/2 42/67/2 22/23/2
f 24/85/13 15/191/13 14/59/13
f 53/86/4 103/192/4 54/87/4
f 51/75/4 53/86/4 55/88/4
f 54/87/30 104/193/30 56/89/30
f 55/88/31 56/89/31 57/90/31
f 45/91/4 57/194/4 58/92/4
f 59/94/6 97/195/6 60/95/6
f 61/96/6 60/95/6 62/97/6
f 63/98/6 62/97/6 64/99/6
f 66/101/6 71/106/6 67/102/6
f 68/103/6 67/102/6 69/104/6
f 71/106/24 59/94/24 61/96/24
f 67/102/32 61/96/32 63/98/32
f 72/107/6 77/112/6 73/108/6
f 74/109/6 73/108/6 75/110/6
f 77/112/6 66/101/6 68/103/6
f 70/113/18 79/196/18 78/114/18
f 75/116/1 81/197/1 79/117/1
f 68/119/4 78/198/4 80/120/4
f 73/122/19 80/199/19 81/123/19
f 82/125/6 100/166/6 83/126/6
f 84/127/6 83/126/6 85/128/6
f 84/130/21 88/134/21 87/131/21
f 86/133/21 93/200/21 88/134/21
f 82/132/21 87/131/21 89/135/21
f 91/137/6 87/143/6 88/138/6
f 92/139/6 88/138/6 93/140/6
f 95/142/6 89/201/6 87/143/6
f 86/144/1 72/202/1 94/145/1
f 76/147/22 91/171/22 92/148/22
f 74/149/22 92/148/22 94/150/22
f 96/152/1 105/203/1 97/153/1
f 98/155/33 96/204/33 59/156/33
f 99/158/4 43/205/4 14/159/4
f 58/92/4 99/158/4 12/160/4
f 99/161/6 70/105/6 69/104/6
f 43/162/32 69/104/32 63/98/32
f 76/111/6 75/110/6 58/163/6
f 58/163/6 75/110/6 70/105/6
f 90/165/6 104/206/6 100/166/6
f 90/167/4 89/207/4 95/168/4
f 76/147/22 57/208/22 95/170/22
f 37/172/27 65/174/27 64/175/27
