# Blender v2.82 (sub 7) OBJ File: ''
# www.blender.org
mtllib Template004.mtl
o Template.004
v -1.231792 4.791378 -16.278456
v -0.544540 3.956622 -16.278456
v -0.544540 4.791378 -16.278456
v -1.231792 3.956622 -16.278456
v -0.544540 3.153058 -16.278456
v -0.435404 3.856226 -16.278456
v -0.544540 3.856226 -16.278456
v 0.553196 3.153058 -16.278456
v -1.219476 5.213326 -16.278456
v -0.516308 6.074698 -16.278448
v -1.219476 6.183834 -16.278448
v -0.516308 6.183834 -16.278448
v -0.415908 6.871086 -16.278448
v -0.415908 6.183834 -16.278448
v 0.540988 6.871086 -16.278448
v 0.540988 6.183834 -16.278448
v 3.954056 3.956622 -16.278456
v 4.641308 4.791378 -16.278456
v 3.954056 4.791378 -16.278456
v 3.954056 3.153058 -16.278456
v 4.641308 3.956622 -16.278456
v 3.844920 3.856226 -16.278456
v 3.954056 3.856226 -16.278456
v 2.856320 3.153058 -16.278456
v 2.856320 3.856226 -16.278456
v 4.628988 6.183834 -16.278448
v 3.925824 5.213326 -16.278456
v 4.628988 5.213326 -16.278456
v 3.925820 6.871090 -16.278448
v 3.925820 6.183834 -16.278448
v 2.868524 6.871090 -16.278448
v 2.868524 6.183834 -16.278448
v -1.231792 3.153058 -16.278456
v 0.553196 3.856226 -16.278456
v -0.516308 5.213326 -16.278456
v -1.219476 6.871086 -16.278448
v 4.641308 3.153058 -16.278456
v 4.628988 6.871090 -16.278448
vt 0.450125 0.945456
vt 0.556077 0.816765
vt 0.556077 0.945456
vt 0.450125 0.816765
vt 0.556077 0.692882
vt 0.572901 0.801287
vt 0.556077 0.801287
vt 0.725311 0.692882
vt 0.422432 0.683146
vt 0.314027 0.819070
vt 0.422432 0.835895
vt 0.314027 0.835895
vt 0.298549 0.941847
vt 0.298549 0.835895
vt 0.169858 0.941847
vt 0.169858 0.835895
vt 0.732891 0.850810
vt 0.604200 0.956762
vt 0.604200 0.850810
vt 0.856774 0.850810
vt 0.732891 0.956762
vt 0.748369 0.833986
vt 0.748369 0.850810
vt 0.856774 0.681576
vt 0.748369 0.681576
vt 0.020890 0.785550
vt 0.129295 0.954784
vt 0.020890 0.954784
vt 0.129295 0.679598
vt 0.129295 0.785550
vt 0.273464 0.679598
vt 0.273464 0.785550
vt 0.450125 0.692882
vt 0.725311 0.801287
vt 0.314027 0.683146
vt 0.422432 0.941847
vt 0.856774 0.956762
vt 0.020890 0.679598
vn 0.0000 0.0000 1.0000
usemtl Material.007
s off
f 1/1/1 2/2/1 3/3/1
f 4/4/1 5/5/1 2/2/1
f 6/6/1 7/7/1 5/5/1
f 8/8/1 6/6/1 5/5/1
f 9/9/1 10/10/1 11/11/1
f 10/10/1 12/12/1 11/11/1
f 13/13/1 11/11/1 14/14/1
f 15/15/1 14/14/1 16/16/1
f 17/17/1 18/18/1 19/19/1
f 20/20/1 21/21/1 17/17/1
f 22/22/1 20/20/1 23/23/1
f 24/24/1 22/22/1 25/25/1
f 26/26/1 27/27/1 28/28/1
f 26/26/1 29/29/1 30/30/1
f 30/30/1 31/31/1 32/32/1
f 1/1/1 4/4/1 2/2/1
f 4/4/1 33/33/1 5/5/1
f 8/8/1 34/34/1 6/6/1
f 9/9/1 35/35/1 10/10/1
f 13/13/1 36/36/1 11/11/1
f 15/15/1 13/13/1 14/14/1
f 17/17/1 21/21/1 18/18/1
f 20/20/1 37/37/1 21/21/1
f 24/24/1 20/20/1 22/22/1
f 26/26/1 30/30/1 27/27/1
f 26/26/1 38/38/1 29/29/1
f 30/30/1 29/29/1 31/31/1
